<svg width="274" height="40" viewBox="0 0 274 40" fill="none" xmlns="http://www.w3.org/2000/svg">
<g clip-path="url(#clip0_6803_4081)">
<path d="M42.5898 31.6222H35.5846L32.0398 25.2349H10.5447L6.99998 31.6222H0L18.0767 0.271484H24.5078L42.5845 31.6163L42.5898 31.6222ZM21.2949 6.52405L13.8051 19.3456H28.7479L21.2949 6.52405Z" fill="white"/>
<path d="M76.7474 0.271484H83.2628V16.7145C83.2628 27.0397 77.764 31.8918 68.7256 31.8918H59.0763C50.0379 31.8918 44.5391 27.0456 44.5391 16.7145V0.271484H51.0545V16.7145C51.0545 22.8323 54.3095 25.3228 59.0763 25.3228H68.7256C73.4502 25.3228 76.7474 22.8323 76.7474 16.7145V0.271484Z" fill="white"/>
<path d="M126.175 31.6222H119.048L113.349 21.9298H95.7201V31.6222H89.4102V0.271484H113.312C122.024 0.271484 125.485 4.8481 125.485 11.1886V11.2354C125.485 15.7183 123.736 19.2519 119.501 20.9278L126.18 31.6163L126.175 31.6222ZM95.7201 6.57093V15.9H113.307C117.299 15.9 119.127 14.4057 119.127 11.2354V11.1886C119.127 8.06521 117.294 6.57093 113.307 6.57093H95.7201Z" fill="white"/>
<path d="M131.219 31.6222V0.271484H137.692V31.6163H131.219V31.6222Z" fill="white"/>
<path d="M186.225 15.9449C186.225 22.5608 183.702 27.448 179.098 29.9443L184.307 35.019L179.746 40L171.519 31.8898H158.451C148.638 31.8898 142.939 25.8658 142.939 15.9449V15.898C142.939 6.02402 148.638 0 158.451 0H170.708C180.52 0 186.219 6.02402 186.219 15.898V15.9449H186.225ZM179.872 15.898C179.872 10.0557 176.775 6.47524 170.713 6.47524H158.456C152.389 6.47524 149.297 10.0557 149.297 15.898V15.9449C149.297 21.8342 152.394 25.4146 158.456 25.4146H170.713C176.781 25.4146 179.872 21.8342 179.872 15.9449V15.898Z" fill="white"/>
<path d="M222.906 0.271484H229.421V16.7145C229.421 27.0397 223.922 31.8918 214.884 31.8918H205.234C196.196 31.8918 190.697 27.0456 190.697 16.7145V0.271484H197.213V16.7145C197.213 22.8323 200.468 25.3228 205.234 25.3228H214.884C219.608 25.3228 222.906 22.8323 222.906 16.7145V0.271484Z" fill="white"/>
<path d="M274 31.6222H266.995L263.455 25.2349H241.955L238.415 31.6222H231.41L249.492 0.271484H255.923L274 31.6163V31.6222ZM252.705 6.52405L245.215 19.3456H260.158L252.705 6.52405Z" fill="white"/>
</g>
<defs>
<clipPath id="clip0_6803_4081">
<rect width="274" height="40" fill="white"/>
</clipPath>
</defs>
</svg>
